<svg width="208" height="127" viewBox="0 0 208 127" fill="none" xmlns="http://www.w3.org/2000/svg">
<path d="M167.701 50.2526C164.039 50.2526 160.5 50.7429 157.131 51.6494C157.154 51.1887 157.177 50.7206 157.177 50.2526C157.177 36.7005 145.774 25.7117 131.71 25.7117C125.889 25.7117 120.531 27.5989 116.244 30.764C112.003 13.6902 96.074 1 77.0607 1C54.8015 1 36.7597 18.3859 36.7597 39.8359C36.7597 44.9774 37.8083 49.8885 39.6896 54.3836C39.1884 54.3613 38.6873 54.3464 38.1784 54.3464C17.6462 54.3464 1 70.3875 1 90.1732C1 109.959 17.6462 126 38.1784 126C39.0651 126 39.9363 125.963 40.8075 125.903V126H167.701C189.405 126 207 109.045 207 88.13C207 67.2149 189.405 50.26 167.701 50.26V50.2526Z" fill="white" stroke="white" stroke-width="2" stroke-miterlimit="10"/>
</svg>
