<svg width="24" height="24" viewBox="0 0 24 24" fill="none" xmlns="http://www.w3.org/2000/svg">
<path d="M20.713 8.1281L20.467 8.6941C20.4286 8.78627 20.3637 8.865 20.2806 8.92038C20.1975 8.97575 20.0999 9.00531 20 9.00531C19.9001 9.00531 19.8025 8.97575 19.7194 8.92038C19.6363 8.865 19.5714 8.78627 19.533 8.6941L19.287 8.1281C18.8545 7.12683 18.0624 6.32402 17.067 5.8781L16.308 5.5391C16.2159 5.49675 16.1379 5.42887 16.0832 5.34353C16.0286 5.25819 15.9995 5.15896 15.9995 5.0576C15.9995 4.95625 16.0286 4.85702 16.0832 4.77168C16.1379 4.68633 16.2159 4.61846 16.308 4.5761L17.025 4.2571C18.0454 3.79848 18.8511 2.96599 19.276 1.9311L19.529 1.3201C19.5662 1.22546 19.631 1.1442 19.715 1.08693C19.799 1.02966 19.8983 0.999023 20 0.999023C20.1017 0.999023 20.201 1.02966 20.285 1.08693C20.369 1.1442 20.4338 1.22546 20.471 1.3201L20.724 1.9301C21.1485 2.96518 21.9538 3.79804 22.974 4.2571L23.692 4.5771C23.7838 4.61958 23.8615 4.68745 23.916 4.77268C23.9705 4.85791 23.9994 4.95695 23.9994 5.0581C23.9994 5.15926 23.9705 5.2583 23.916 5.34353C23.8615 5.42876 23.7838 5.49662 23.692 5.5391L22.932 5.8771C21.9368 6.32347 21.1451 7.12663 20.713 8.1281ZM20 11.0001C20.6787 11.0006 21.3526 10.886 21.993 10.6611C21.9977 10.7744 22 10.8874 22 11.0001C22 13.1218 21.1571 15.1567 19.6569 16.657C18.1566 18.1573 16.1217 19.0001 14 19.0001V22.5001C9 20.5001 2 17.5001 2 11.0001C2 8.87837 2.84285 6.84354 4.34315 5.34325C5.84344 3.84296 7.87827 3.0001 10 3.0001H14C14.1133 3.0001 14.2263 3.00244 14.339 3.0071C14.0203 3.91203 13.9233 4.88018 14.056 5.83035C14.1888 6.78052 14.5475 7.685 15.102 8.46792C15.6565 9.25084 16.3906 9.88938 17.2429 10.33C18.0951 10.7706 19.0406 11.0004 20 11.0001Z" fill="#84D6FF"/>
</svg>
